<svg id="Layer_1" data-name="Layer 1" xmlns="http://www.w3.org/2000/svg" viewBox="0 0 64.93 129.18"><defs><style>.cls-1{fill:#95917c;}.cls-2{fill:#c41d27;}.cls-3{fill:#ea1d27;}.cls-4{fill:#ff4a45;}.cls-5{fill:#161616;}.cls-6{fill:#604a45;}.cls-7{fill:#7aeaff;opacity:0.83;}.cls-8{fill:#f4e745;}</style></defs><rect class="cls-1" x="17.85" y="19.48" width="9.47" height="2.95" transform="translate(-7.37 13.74) rotate(-29.31)"/><rect class="cls-1" x="20.93" y="20.88" width="2.95" height="8.88" transform="translate(-10.4 33.53) rotate(-62.56)"/><rect class="cls-1" x="41.12" y="16.22" width="2.95" height="9.47" transform="translate(3.47 47.84) rotate(-60.69)"/><rect class="cls-1" x="38.35" y="23.85" width="8.88" height="2.95" transform="translate(-6.86 22.56) rotate(-27.44)"/><rect class="cls-2" x="39.69" y="108.84" width="3.76" height="8.4"/><rect class="cls-2" x="21.48" y="108.84" width="3.76" height="8.4"/><polygon class="cls-2" points="10.2 3.22 32.32 1.66 54.73 3.22 54.73 10 32.47 11.21 10.2 10 10.2 3.22"/><rect class="cls-2" x="15.66" y="94.39" width="31.26" height="8.55"/><polygon class="cls-3" points="11.38 75.03 24.06 90.11 40.87 90.11 53.55 75.03 53.55 46.47 32.47 42.34 11.38 46.47 11.38 75.03"/><polygon class="cls-3" points="27.07 0.39 32.47 0 37.87 0.39 43.38 73.58 21.56 73.58 27.07 0.39"/><polygon class="cls-4" points="37.68 51.49 35.87 3.85 32.47 3.26 29.06 3.85 27.25 51.49 37.68 51.49"/><rect class="cls-5" x="9.02" y="12.49" width="10.62" height="21.58"/><rect class="cls-5" x="45.29" y="12.49" width="10.62" height="21.58" transform="translate(101.2 46.56) rotate(180)"/><rect class="cls-5" x="1.06" y="87.35" width="18.58" height="21.58"/><rect class="cls-5" x="45.29" y="87.35" width="18.58" height="21.58" transform="translate(109.17 196.28) rotate(180)"/><rect class="cls-1" x="1.06" y="91.14" width="18.58" height="6.49"/><rect class="cls-1" x="45.29" y="91.14" width="18.58" height="6.49"/><rect class="cls-1" x="9.02" y="16.87" width="10.62" height="5.6"/><rect class="cls-1" x="45.29" y="16.87" width="10.62" height="5.6"/><rect class="cls-3" x="21.48" y="65.47" width="21.97" height="46.18"/><rect class="cls-4" x="9.85" y="1.66" width="1.55" height="8.35"/><rect class="cls-4" x="53.54" y="1.66" width="1.55" height="8.35"/><polygon class="cls-2" points="0.51 115.62 32.26 114.93 64.42 115.62 64.42 129.18 32.47 128.49 0.51 129.18 0.51 115.62"/><rect class="cls-4" y="111.39" width="2.22" height="17.79"/><rect class="cls-4" x="62.71" y="111.39" width="2.22" height="17.79"/><polygon class="cls-4" points="25.24 65.63 39.69 65.63 37.92 111.39 27.01 111.39 25.24 65.63"/><polygon class="cls-6" points="25.24 79.37 39.69 79.37 39.1 57.61 25.83 57.61 25.24 79.37"/><rect class="cls-1" x="28.88" y="59.96" width="7.27" height="1.97"/><rect class="cls-1" x="27.9" y="73.26" width="9.24" height="4.01"/><polygon class="cls-7" points="25.38 69.14 23.63 51.68 41.4 51.68 39.41 69.14 39.1 57.61 25.83 57.61 25.38 69.14"/><rect class="cls-3" x="10.62" y="15.33" width="7.84" height="21.46"/><rect class="cls-3" x="46.68" y="15.33" width="7.84" height="21.46"/><rect class="cls-4" x="10.62" y="19.49" width="7.84" height="5.79"/><rect class="cls-4" x="46.68" y="19.49" width="7.84" height="5.79"/><rect class="cls-8" x="15.66" y="120.29" width="34.94" height="2.76"/></svg>