<svg id="Layer_1" data-name="Layer 1" xmlns="http://www.w3.org/2000/svg" xmlns:xlink="http://www.w3.org/1999/xlink" viewBox="0 0 387.96 629.29"><defs><style>.cls-1{fill:none;}.cls-2{clip-path:url(#clip-path);}.cls-3{fill:#a6d300;}</style><clipPath id="clip-path"><path class="cls-1" d="M388,23.69V605.61a23.68,23.68,0,0,1-23.69,23.68H39.89A23.69,23.69,0,0,1,16.2,605.6V116.35A24.27,24.27,0,0,0,7.39,97.68a20.46,20.46,0,0,1,0-31.48A24.3,24.3,0,0,0,16.2,47.53V23.69A23.69,23.69,0,0,1,39.89,0H364.27A23.69,23.69,0,0,1,388,23.69Z"/></clipPath></defs><g class="cls-2"><rect class="cls-3" x="-21.1" y="-9.13" width="454.64" height="641"/></g></svg>