<svg id="Layer_1" data-name="Layer 1" xmlns="http://www.w3.org/2000/svg" viewBox="0 0 150 150"><defs><style>.cls-1{fill:#ff6f00;}.cls-2{fill:#fff;}</style></defs><circle class="cls-1" cx="75" cy="75" r="75"/><path class="cls-2" d="M78,98.45A26.42,26.42,0,1,1,104.39,72,26.45,26.45,0,0,1,78,98.45Zm0-47A20.56,20.56,0,1,0,98.53,72,20.59,20.59,0,0,0,78,51.47Z"/><path class="cls-2" d="M42.71,110.21a2.92,2.92,0,0,1-2.07-5L52.78,93.08a2.93,2.93,0,0,1,4.14,4.15L44.78,109.36A2.91,2.91,0,0,1,42.71,110.21Z"/></svg>