<svg id="Layer_1" data-name="Layer 1" xmlns="http://www.w3.org/2000/svg" viewBox="0 0 150 150"><defs><style>.cls-1{fill:#ff6f00;}.cls-2{fill:#fff;}</style></defs><circle class="cls-1" cx="75" cy="75" r="75"/><path class="cls-2" d="M69.91,111.41h-10A11.54,11.54,0,0,1,48.33,99.88V50.12A11.54,11.54,0,0,1,59.86,38.59h10a2.93,2.93,0,1,1,0,5.85h-10a5.68,5.68,0,0,0-5.67,5.68V99.88a5.68,5.68,0,0,0,5.67,5.68h10a2.93,2.93,0,1,1,0,5.85Z"/><path class="cls-2" d="M110.45,77.93H71.84a2.93,2.93,0,0,1,0-5.86h38.61a2.93,2.93,0,0,1,0,5.86Z"/><path class="cls-2" d="M110.45,77.93a2.92,2.92,0,0,1-2.07-.86L95.57,64.26a2.93,2.93,0,1,1,4.14-4.14l12.81,12.81a2.93,2.93,0,0,1-2.07,5Z"/><path class="cls-2" d="M97.64,90.74a2.93,2.93,0,0,1-2.07-5l12.81-12.81a2.93,2.93,0,0,1,4.14,4.14L99.71,89.88A2.92,2.92,0,0,1,97.64,90.74Z"/></svg>